<?xml version="1.0" standalone="no"?>
<!DOCTYPE svg PUBLIC "-//W3C//DTD SVG 20010904//EN"
 "http://www.w3.org/TR/2001/REC-SVG-20010904/DTD/svg10.dtd">
<svg version="1.0" xmlns="http://www.w3.org/2000/svg"
 width="200.000000pt" height="200.000000pt" viewBox="0 0 200.000000 200.000000"
 preserveAspectRatio="xMidYMid meet">
<metadata>
Created by potrace 1.11, written by Peter Selinger 2001-2013
</metadata>
<g transform="translate(0.000000,200.000000) scale(0.100000,-0.100000)"
fill="#000000" stroke="none">
<path d="M1855 1720 c-25 -28 -78 -60 -112 -68 -27 -6 -286 -6 -853 0 -289 3
-314 1 -408 -31 -78 -27 -124 -55 -180 -112 -111 -113 -161 -307 -122 -476 18
-82 38 -84 46 -5 15 153 113 306 231 362 62 29 89 37 165 46 93 11 153 10 151
-3 -1 -6 -4 -22 -7 -35 -10 -59 -68 -259 -96 -338 -49 -135 -133 -298 -199
-387 -47 -63 -79 -93 -143 -136 -100 -67 -128 -105 -128 -171 0 -56 26 -89 83
-104 48 -13 97 0 142 39 45 40 121 197 180 374 26 77 49 147 52 155 3 8 7 20
9 25 1 6 17 57 34 115 18 58 33 110 35 115 1 6 4 17 8 25 17 47 64 217 73 267
7 39 24 74 32 69 5 -3 69 -8 143 -11 172 -8 232 -14 241 -23 5 -5 -2 -46 -16
-93 -33 -114 -94 -365 -101 -414 -4 -22 -10 -56 -15 -75 -31 -121 -34 -318 -5
-398 42 -115 131 -175 253 -171 86 3 131 22 187 77 39 38 112 164 119 205 1 7
5 21 9 32 3 11 8 31 11 45 3 14 9 47 14 74 6 27 8 55 5 62 -9 24 -31 3 -37
-36 -11 -69 -67 -162 -118 -196 -63 -43 -140 -45 -186 -5 -73 62 -94 217 -57
416 20 108 49 235 76 325 17 58 33 115 36 126 5 21 11 22 126 23 172 2 183 6
228 71 88 129 160 313 94 240z"/>
</g>
</svg>
